<svg version="1.0" xmlns="http://www.w3.org/2000/svg" width="600pt" height="600pt" viewBox="195 95 215 240" preserveAspectRatio="xMidYMid meet"> <g transform="translate(0.000000,600.000000) scale(0.050000,-0.050000)" fill="#000000" stroke="none"> <path d="M7090 9721 l-440 -215 -170 -508 c-93 -279 -170 -512 -171 -518 -1 -5 -11 -32 -23 -60 -43 -101 -271 -762 -263 -766 56 -31 917 -454 923 -454 6 0 -60 154 -145 342 l-155 341 47 232 c57 280 53 275 118 142 51 -104 61 -112 325 -257 l273 -150 31 -127 31 -127 155 -57 155 -57 52 84 c29 46 79 117 110 157 l57 73 -97 257 c-54 141 -146 382 -205 535 l-106 278 -141 66 c-137 63 -145 70 -256 249 -64 102 -113 188 -110 191 4 3 123 -83 265 -192 142 -109 262 -195 266 -191 3 4 -57 111 -135 237 l-142 231 110 234 c61 129 111 238 111 242 0 16 -50 -7 -470 -212z m-123 -385 c-8 -53 -2 -100 20 -147 18 -38 48 -101 66 -139 19 -39 64 -107 102 -151 40 -46 64 -92 58 -109 -14 -37 9 -39 47 -5 24 21 24 20 4 -7 -13 -17 -17 -39 -9 -48 8 -9 -1 -11 -20 -4 -73 27 -97 -171 -23 -199 15 -6 28 -20 28 -30 0 -11 -10 -13 -22 -6 -25 16 7 -52 65 -134 20 -29 37 -66 37 -81 0 -16 18 -48 40 -71 160 -172 -226 -23 -413 158 -57 57 -86 73 -93 54 -8 -19 -11 -16 -12 7 -1 21 -13 31 -30 24 -17 -7 -34 6 -42 31 -7 23 -21 36 -32 30 -10 -7 -13 -20 -7 -30 6 -11 -2 -19 -19 -19 -33 0 -125 -113 -117 -142 3 -10 -6 -16 -19 -13 -13 3 -34 -25 -47 -62 l-22 -66 -31 47 c-29 43 -28 56 3 139 19 50 41 130 49 178 8 48 22 96 31 108 37 44 164 416 155 452 -5 20 -3 40 5 43 8 3 38 59 68 123 36 81 62 114 81 106 16 -6 33 1 38 15 26 66 73 25 61 -52z m480 -677 c20 -18 273 -617 273 -647 0 -11 -12 -7 -27 9 -27 30 -393 669 -393 687 0 13 124 -28 147 -49z m-960 -564 c-10 -36 -16 -139 -15 -230 l3 -165 -70 7 c-101 11 -139 111 -83 217 12 22 24 63 27 89 6 52 85 141 128 145 20 1 22 -14 10 -63z m1191 -217 c22 -24 49 -36 62 -28 16 10 21 2 17 -23 -11 -55 -87 -58 -125 -4 -63 89 -27 132 46 55z"></path> <path d="M5970 9758 c-1195 -114 -1980 -726 -1856 -1450 82 -479 417 -737 1562 -1207 1068 -437 1382 -775 1055 -1137 -427 -473 -1673 -303 -2316 317 -166 160 -124 71 50 -105 425 -432 977 -663 1650 -690 1375 -56 1945 789 963 1427 -173 112 -369 212 -938 477 -945 441 -1244 687 -1320 1089 -118 624 676 1148 1895 1251 91 8 165 22 165 32 0 22 -663 19 -910 -4z m-440 -189 c-693 -235 -1050 -594 -1025 -1033 22 -409 342 -720 1127 -1097 651 -313 719 -345 788 -375 41 -17 59 -34 43 -39 -24 -9 -112 28 -473 195 -66 30 -237 107 -380 171 -648 287 -965 521 -1110 817 -288 588 186 1183 1130 1417 123 31 74 4 -100 -56z m1112 -2622 c53 -29 92 -60 87 -69 -12 -19 -208 83 -209 107 0 24 19 18 122 -38z m184 -110 c65 -35 194 -141 194 -160 0 -31 -31 -17 -141 65 -136 102 -165 155 -53 95z m320 -282 c264 -326 177 -665 -224 -866 -130 -65 -155 -62 -41 6 387 234 469 517 237 823 -43 56 -78 107 -78 112 0 32 46 -1 106 -75z"></path> <path d="M5901 8980 c-658 -493 -627 -460 -651 -687 l-14 -125 107 -91 c98 -83 196 -150 402 -275 l75 -45 18 48 c10 26 97 227 193 446 197 452 493 1172 485 1180 -3 2 -280 -201 -615 -451z m87 -312 c-35 -119 -130 -331 -162 -364 -15 -15 -26 -46 -27 -70 0 -24 -23 -70 -52 -102 l-51 -59 -66 35 c-140 76 -197 235 -113 314 22 20 53 56 70 79 16 24 60 50 96 58 57 11 66 22 63 66 -2 35 5 49 21 43 14 -5 64 17 112 49 118 79 144 67 109 -49z"></path>                 </g> </svg>